<svg xmlns="http://www.w3.org/2000/svg" width="720" height="1280" viewBox="0 0 720 1280" role="img" aria-labelledby="title desc">
  <title id="title">Scientific workflows hackathon</title>
  <desc id="desc">An editorial video cover with terminal panels, connected tasks, and a completed workflow.</desc>
  <defs>
    <linearGradient id="bg" x1="30" y1="40" x2="690" y2="1240" gradientUnits="userSpaceOnUse"><stop stop-color="#F4F6F8"/><stop offset="1" stop-color="#DEE6ED"/></linearGradient>
    <linearGradient id="window" x1="120" y1="430" x2="600" y2="900" gradientUnits="userSpaceOnUse"><stop stop-color="#1A2941"/><stop offset="1" stop-color="#263E5E"/></linearGradient>
    <filter id="shadow" x="-30%" y="-30%" width="160%" height="180%"><feDropShadow dx="0" dy="22" stdDeviation="24" flood-color="#17243B" flood-opacity="0.22"/></filter>
  </defs>
  <rect width="720" height="1280" rx="32" fill="url(#bg)"/>
  <rect x="28" y="28" width="664" height="1224" rx="22" fill="none" stroke="#FFFFFF" stroke-opacity="0.85" stroke-width="2"/>
  <text x="72" y="112" fill="#7E5071" font-family="system-ui, -apple-system, sans-serif" font-size="28" font-weight="750" letter-spacing="5">HACKATHON</text>
  <text x="72" y="214" fill="#17243B" font-family="Georgia, serif" font-size="60" font-weight="700">
    <tspan x="72" dy="0">Build the</tspan><tspan x="72" dy="73">workflow.</tspan>
  </text>
  <text x="72" y="386" fill="#59687A" font-family="system-ui, -apple-system, sans-serif" font-size="27">Connect · test · accelerate</text>

  <g filter="url(#shadow)">
    <rect x="87" y="450" width="546" height="435" rx="30" fill="url(#window)"/>
    <rect x="111" y="474" width="498" height="387" rx="16" fill="#101A2A" stroke="#6F89AB" stroke-opacity="0.4" stroke-width="2"/>
  </g>
  <g fill="#7E5071"><circle cx="143" cy="510" r="8"/><circle cx="169" cy="510" r="8" opacity="0.8"/><circle cx="195" cy="510" r="8" opacity="0.55"/></g>
  <g fill="none" stroke-linecap="round" stroke-linejoin="round">
    <path d="M155 589H239L276 637H359L398 589H492" stroke="#7291B8" stroke-width="8"/>
    <path d="M155 746H239L276 698H359L398 746H540" stroke="#7E5071" stroke-width="8"/>
    <path d="M161 559L190 582L161 605" stroke="#D8BCCD" stroke-width="9"/>
    <path d="M455 802H540" stroke="#A6B8CB" stroke-width="9"/>
  </g>
  <g fill="#F2F5F8" stroke="#7895B8" stroke-width="5"><rect x="227" y="607" width="98" height="86" rx="18"/><rect x="373" y="555" width="102" height="86" rx="18"/><rect x="373" y="713" width="102" height="86" rx="18"/></g>
  <g fill="none" stroke="#7E5071" stroke-width="8" stroke-linecap="round" stroke-linejoin="round"><path d="M249 650L267 669L304 628"/><path d="M395 598L413 617L450 576"/><path d="M395 756L413 775L450 734"/></g>
  <g fill="#4E6FA3"><circle cx="155" cy="589" r="14"/><circle cx="540" cy="746" r="14"/></g>

  <rect x="70" y="1040" width="580" height="2" fill="#C5D1DC"/>
  <text x="72" y="1110" fill="#17243B" font-family="system-ui, -apple-system, sans-serif" font-size="31" font-weight="700">MATHIS CERTENAIS</text>
  <text x="72" y="1160" fill="#59687A" font-family="system-ui, -apple-system, sans-serif" font-size="27">HPC &amp; scientific workflows</text>
  <circle cx="606" cy="1118" r="42" fill="#4E6FA3"/>
  <path d="M594 1097L624 1118L594 1139Z" fill="#FFFFFF"/>
</svg>
