<svg xmlns="http://www.w3.org/2000/svg" width="720" height="1280" viewBox="0 0 720 1280" role="img" aria-labelledby="title desc">
  <title id="title">HPC as a service webinar</title>
  <desc id="desc">An editorial video cover featuring a service dashboard connected to a high-performance computing cluster.</desc>
  <defs>
    <linearGradient id="bg" x1="40" y1="60" x2="690" y2="1230" gradientUnits="userSpaceOnUse"><stop stop-color="#1A2941"/><stop offset="1" stop-color="#263D5C"/></linearGradient>
    <linearGradient id="screen" x1="165" y1="427" x2="555" y2="810" gradientUnits="userSpaceOnUse"><stop stop-color="#F4F7F9"/><stop offset="1" stop-color="#DAE4EC"/></linearGradient>
    <filter id="shadow" x="-30%" y="-30%" width="160%" height="180%"><feDropShadow dx="0" dy="24" stdDeviation="25" flood-color="#050A12" flood-opacity="0.38"/></filter>
  </defs>
  <rect width="720" height="1280" rx="32" fill="url(#bg)"/>
  <rect x="28" y="28" width="664" height="1224" rx="22" fill="none" stroke="#FFFFFF" stroke-opacity="0.18" stroke-width="2"/>
  <text x="72" y="112" fill="#D7B9CC" font-family="system-ui, -apple-system, sans-serif" font-size="28" font-weight="750" letter-spacing="5">WEBINAR</text>
  <text x="72" y="214" fill="#F3F6F8" font-family="Georgia, serif" font-size="61" font-weight="700">
    <tspan x="72" dy="0">HPC as</tspan><tspan x="72" dy="73">a service.</tspan>
  </text>
  <text x="72" y="388" fill="#B9C8D8" font-family="system-ui, -apple-system, sans-serif" font-size="27">From queue to capability</text>

  <g fill="none" stroke="#7895B8" stroke-width="4" stroke-dasharray="7 12"><path d="M124 575L170 625M596 575L550 625M146 856L230 790M574 856L490 790"/></g>
  <g filter="url(#shadow)">
    <rect x="142" y="463" width="436" height="348" rx="28" fill="#0E1828"/>
    <rect x="168" y="489" width="384" height="296" rx="14" fill="url(#screen)"/>
    <path d="M101 829H619L575 884H145Z" fill="#E7EDF2"/>
  </g>
  <g fill="#7E5071"><rect x="201" y="530" width="318" height="55" rx="14"/><rect x="201" y="616" width="143" height="128" rx="16" opacity="0.8"/><rect x="376" y="616" width="143" height="128" rx="16" opacity="0.58"/></g>
  <g fill="#F6F8FA"><circle cx="228" cy="557" r="8"/><path d="M253 557H467" stroke="#F6F8FA" stroke-width="8" stroke-linecap="round"/></g>
  <g fill="#DDE6EE"><circle cx="272" cy="680" r="27"/><path d="M422 704L448 669L473 688L499 650" fill="none" stroke="#DDE6EE" stroke-width="9" stroke-linecap="round" stroke-linejoin="round"/></g>
  <g fill="#DCE4EC" stroke="#7895B8" stroke-width="4"><circle cx="118" cy="553" r="36"/><circle cx="602" cy="553" r="36"/><circle cx="126" cy="874" r="36"/><circle cx="594" cy="874" r="36"/></g>
  <g fill="#17243B"><rect x="102" y="537" width="32" height="32" rx="6"/><circle cx="602" cy="553" r="14"/><path d="M107 887L126 858L145 887Z"/><path d="M577 860H611V888H577Z"/></g>

  <rect x="70" y="1040" width="580" height="2" fill="#FFFFFF" fill-opacity="0.18"/>
  <text x="72" y="1110" fill="#F3F6F8" font-family="system-ui, -apple-system, sans-serif" font-size="31" font-weight="700">MATHIS CERTENAIS</text>
  <text x="72" y="1160" fill="#B9C8D8" font-family="system-ui, -apple-system, sans-serif" font-size="27">HPC &amp; scientific workflows</text>
  <circle cx="606" cy="1118" r="42" fill="#7E5071"/>
  <path d="M594 1097L624 1118L594 1139Z" fill="#FFFFFF"/>
</svg>
